<?xml version="1.0" encoding="UTF-8" standalone="no"?>
<!-- Created with Inkscape (http://www.inkscape.org/) -->

<svg
   xmlns:dc="http://purl.org/dc/elements/1.1/"
   xmlns:cc="http://creativecommons.org/ns#"
   xmlns:rdf="http://www.w3.org/1999/02/22-rdf-syntax-ns#"
   xmlns:svg="http://www.w3.org/2000/svg"
   xmlns="http://www.w3.org/2000/svg"
   xmlns:sodipodi="http://sodipodi.sourceforge.net/DTD/sodipodi-0.dtd"
   xmlns:inkscape="http://www.inkscape.org/namespaces/inkscape"
   width="27.252083mm"
   height="27.252083mm"
   viewBox="0 0 27.252083 27.252083"
   version="1.1"
   id="svg2306"
   inkscape:export-filename="/home/zali/quickcount.png"
   inkscape:export-xdpi="96"
   inkscape:export-ydpi="96"
   inkscape:version="0.92.4 5da689c313, 2019-01-14"
   sodipodi:docname="quickcount-logo.svg">
  <defs
     id="defs2300" />
  <sodipodi:namedview
     id="base"
     pagecolor="#ffffff"
     bordercolor="#666666"
     borderopacity="1.0"
     inkscape:pageopacity="0.0"
     inkscape:pageshadow="2"
     inkscape:zoom="3.959798"
     inkscape:cx="62.246082"
     inkscape:cy="62.611781"
     inkscape:document-units="mm"
     inkscape:current-layer="layer1"
     showgrid="false"
     inkscape:snap-bbox="true"
     inkscape:bbox-paths="true"
     inkscape:bbox-nodes="true"
     inkscape:snap-bbox-edge-midpoints="true"
     inkscape:snap-bbox-midpoints="true"
     inkscape:object-paths="true"
     inkscape:snap-intersection-paths="true"
     inkscape:snap-smooth-nodes="true"
     inkscape:snap-midpoints="true"
     inkscape:snap-object-midpoints="true"
     inkscape:snap-center="true"
     inkscape:snap-text-baseline="true"
     inkscape:snap-page="true"
     inkscape:window-width="1366"
     inkscape:window-height="713"
     inkscape:window-x="0"
     inkscape:window-y="31"
     inkscape:window-maximized="1" />
  <metadata
     id="metadata2303">
    <rdf:RDF>
      <cc:Work
         rdf:about="">
        <dc:format>image/svg+xml</dc:format>
        <dc:type
           rdf:resource="http://purl.org/dc/dcmitype/StillImage" />
        <dc:title></dc:title>
      </cc:Work>
    </rdf:RDF>
  </metadata>
  <g
     inkscape:label="Layer 1"
     inkscape:groupmode="layer"
     id="layer1"
     transform="translate(274.41071,-180.54553)">
    <rect
       style="opacity:1;fill:#2263c5;fill-opacity:1;stroke:#ffffff;stroke-width:1.93451846;stroke-linecap:round;stroke-linejoin:round;stroke-miterlimit:4;stroke-dasharray:none;stroke-opacity:1"
       id="rect2192"
       width="25.317564"
       height="25.317564"
       x="-273.44345"
       y="181.51279"
       ry="12.658782"
       inkscape:export-xdpi="50"
       inkscape:export-ydpi="50" />
    <g
       transform="matrix(0.12141416,0,0,0.12141416,-356.75044,179.2341)"
       id="g2202"
       style="fill:#ffffff"
       inkscape:export-xdpi="50"
       inkscape:export-ydpi="50">
      <path
         inkscape:connector-curvature="0"
         transform="scale(0.26458333)"
         id="path2194"
         d="m 2983.332,184.01562 c -157.4782,0 -286.2109,128.73271 -286.2109,286.21094 0,157.47825 128.7327,286.21875 286.2109,286.21875 31.7287,0 62.2862,-5.23488 90.8633,-14.86914 l 63.8135,63.81384 123.3404,-61.86515 L 3187.8242,670 c 50.4898,-51.66816 81.7188,-122.22904 81.7188,-199.77344 0,-157.47823 -128.7327,-286.21093 -286.211,-286.21094 z m 0,100.00196 c 103.4343,0 186.2149,82.77477 186.2149,186.20898 0,103.43426 -82.7806,186.21485 -186.2149,186.21485 -103.4342,0 -186.209,-82.78059 -186.209,-186.21485 0,-103.43421 82.7748,-186.20898 186.209,-186.20898 z"
         style="color:#000000;font-style:normal;font-variant:normal;font-weight:normal;font-stretch:normal;font-size:medium;line-height:normal;font-family:sans-serif;font-variant-ligatures:normal;font-variant-position:normal;font-variant-caps:normal;font-variant-numeric:normal;font-variant-alternates:normal;font-feature-settings:normal;text-indent:0;text-align:start;text-decoration:none;text-decoration-line:none;text-decoration-style:solid;text-decoration-color:#000000;letter-spacing:normal;word-spacing:normal;text-transform:none;writing-mode:lr-tb;direction:ltr;text-orientation:mixed;dominant-baseline:auto;baseline-shift:baseline;text-anchor:start;white-space:normal;shape-padding:0;clip-rule:nonzero;display:inline;overflow:visible;visibility:visible;opacity:1;isolation:auto;mix-blend-mode:normal;color-interpolation:sRGB;color-interpolation-filters:linearRGB;solid-color:#000000;solid-opacity:1;vector-effect:none;fill:#ffffff;fill-opacity:1;fill-rule:nonzero;stroke:none;stroke-width:100;stroke-linecap:round;stroke-linejoin:round;stroke-miterlimit:4;stroke-dasharray:none;stroke-dashoffset:0;stroke-opacity:1;color-rendering:auto;image-rendering:auto;shape-rendering:auto;text-rendering:auto;enable-background:accumulate"
         sodipodi:nodetypes="sssccccsssssss" />
      <path
         inkscape:connector-curvature="0"
         id="path2196"
         d="m 776.40481,17.697109 c -1.2564,0 -2.26809,1.011169 -2.26809,2.267562 v 7.834664 c 0,1.256393 1.01169,2.268077 2.26809,2.268077 h 4.11548 v 12.370305 h 17.64028 V 30.067412 h 4.11551 c 1.2564,3e-6 2.26809,-1.011684 2.26809,-2.268077 v -7.834664 c 0,-1.256393 -1.01169,-2.267562 -2.26809,-2.267562 z"
         style="opacity:1;fill:#ffffff;fill-opacity:1;stroke:none;stroke-width:2.03104067;stroke-linecap:round;stroke-linejoin:round;stroke-miterlimit:4;stroke-dasharray:none;stroke-opacity:1" />
      <path
         transform="matrix(0.26458333,0,0,0.26458333,-250.17769,28.169913)"
         inkscape:transform-center-y="-1.7961785"
         inkscape:transform-center-x="11.886402"
         inkscape:connector-curvature="0"
         style="opacity:1;fill:#ffffff;fill-opacity:1;stroke:none;stroke-width:19.67430305;stroke-linecap:round;stroke-linejoin:round;stroke-miterlimit:4;stroke-dasharray:none;stroke-opacity:1"
         d="m 3931.3652,208.94141 a 154.91015,154.91015 0 0 0 -8.2129,0.19726 154.91015,154.91015 0 0 0 -7.7441,0.38672 154.91015,154.91015 0 0 0 -7.6445,0.95703 154.91015,154.91015 0 0 0 -7.6934,1.16211 154.91015,154.91015 0 0 0 -7.4922,1.70899 154.91015,154.91015 0 0 0 -7.5488,1.92773 154.91015,154.91015 0 0 0 -7.2969,2.45313 154.91015,154.91015 0 0 0 -7.3027,2.66601 154.91015,154.91015 0 0 0 -7.0254,3.17383 154.91015,154.91015 0 0 0 -6.9922,3.375 154.91015,154.91015 0 0 0 -6.6973,3.87305 154.91015,154.91015 0 0 0 -6.5937,4.04296 154.91015,154.91015 0 0 0 -6.2832,4.52735 154.91015,154.91015 0 0 0 -6.1563,4.67969 154.91015,154.91015 0 0 0 -5.7851,5.11718 154.91015,154.91015 0 0 0 -5.6856,5.29688 154.91015,154.91015 0 0 0 -5.2285,5.65234 154.91015,154.91015 0 0 0 -5.9746,6.79883 154.91015,154.91015 0 0 0 -0.8047,1.00586 154.91015,154.91015 0 0 0 -4.9043,6.85742 154.91015,154.91015 0 0 0 -4.3867,6.34961 154.91015,154.91015 0 0 0 -3.8516,6.71484 154.91015,154.91015 0 0 0 -3.7441,6.78125 154.91015,154.91015 0 0 0 -3.1523,7.04102 154.91015,154.91015 0 0 0 -3.0547,7.13281 154.91015,154.91015 0 0 0 -2.4395,7.34375 154.91015,154.91015 0 0 0 -2.3203,7.38477 154.91015,154.91015 0 0 0 -1.7051,7.58789 154.91015,154.91015 0 0 0 -1.5625,7.52734 154.91015,154.91015 0 0 0 -0.9414,7.75391 154.91015,154.91015 0 0 0 -0.8281,7.89844 154.91015,154.91015 0 0 0 -0.1152,3.22851 154.91015,154.91015 0 0 0 -0.045,9.71875 154.91015,154.91015 0 0 0 0.3868,7.7461 154.91015,154.91015 0 0 0 0.7382,7.69335 154.91015,154.91015 0 0 0 1.1563,7.65821 154.91015,154.91015 0 0 0 1.5,7.58008 154.91015,154.91015 0 0 0 1.916,7.49804 154.91015,154.91015 0 0 0 2.252,7.40625 154.91015,154.91015 0 0 0 2.6582,7.27539 154.91015,154.91015 0 0 0 2.9707,7.11914 154.91015,154.91015 0 0 0 3.373,6.98829 154.91015,154.91015 0 0 0 3.6738,6.79492 154.91015,154.91015 0 0 0 4.0508,6.60937 154.91015,154.91015 0 0 0 4.3301,6.39063 154.91015,154.91015 0 0 0 4.6934,6.17383 154.91015,154.91015 0 0 0 4.9472,5.92968 154.91015,154.91015 0 0 0 7.4844,8.03516 154.91015,154.91015 0 0 0 5.7969,5.22266 154.91015,154.91015 0 0 0 5.7695,5.06835 154.91015,154.91015 0 0 0 6.2598,4.59766 154.91015,154.91015 0 0 0 6.2773,4.49024 154.91015,154.91015 0 0 0 6.6602,3.93359 154.91015,154.91015 0 0 0 6.7226,3.85547 154.91015,154.91015 0 0 0 7.043,3.25976 154.91015,154.91015 0 0 0 7.0352,3.14844 154.91015,154.91015 0 0 0 7.3945,2.5625 154.91015,154.91015 0 0 0 7.2617,2.41406 154.91015,154.91015 0 0 0 7.6094,1.8086 154.91015,154.91015 0 0 0 7.4765,1.67773 154.91015,154.91015 0 0 0 7.7325,1.03906 154.91015,154.91015 0 0 0 7.6211,0.92579 154.91015,154.91015 0 0 0 13.2304,0.44336 154.91015,154.91015 0 0 0 7.6895,-0.38672 154.91015,154.91015 0 0 0 7.7578,-0.51563 154.91015,154.91015 0 0 0 7.6406,-1.1543 154.91015,154.91015 0 0 0 7.6445,-1.28515 154.91015,154.91015 0 0 0 2.3008,-0.58789 l -72.8144,-102.78516 a 61.691429,61.691429 0 0 1 -23.1973,-48.13281 61.691429,61.691429 0 0 1 61.6914,-61.69141 61.691429,61.691429 0 0 1 33.1328,9.73242 l 50.1426,-78.63671 a 154.91015,154.91015 0 0 0 -9.3144,-5.34375 154.91015,154.91015 0 0 0 -6.877,-3.54102 154.91015,154.91015 0 0 0 -7.0703,-3.16406 154.91015,154.91015 0 0 0 -7.1914,-2.83789 154.91015,154.91015 0 0 0 -7.3496,-2.44141 154.91015,154.91015 0 0 0 -7.4356,-2.10351 154.91015,154.91015 0 0 0 -7.5683,-1.69922 154.91015,154.91015 0 0 0 -7.586,-1.34766 154.91015,154.91015 0 0 0 -7.7168,-0.93555 154.91015,154.91015 0 0 0 -8.9531,-0.67968 154.91015,154.91015 0 0 0 -3.7344,-0.13086 z"
         id="path2198" />
      <path
         transform="matrix(0.26458333,0,0,0.26458333,-916.81015,-342.00564)"
         inkscape:transform-center-y="13.239131"
         inkscape:transform-center-x="-5.6981534"
         inkscape:connector-curvature="0"
         id="path2200"
         d="m 6448.4434,1736.459 a 26.391317,26.391317 0 0 0 -26.3907,26.3926 26.391317,26.391317 0 0 0 3.5645,13.1777 l -0.029,0.018 0.2031,0.2871 a 26.391317,26.391317 0 0 0 2.4512,3.459 l 87.2246,123.1347 20.7734,-11.9941 -63.0078,-137.0723 a 26.391317,26.391317 0 0 0 -1.7832,-3.8769 l -0.1504,-0.3282 -0.027,0.016 a 26.391317,26.391317 0 0 0 -22.8281,-13.2129 z"
         style="opacity:1;fill:#ffffff;fill-opacity:1;stroke:none;stroke-width:7.82091045;stroke-linecap:round;stroke-linejoin:round;stroke-miterlimit:4;stroke-dasharray:none;stroke-opacity:1" />
    </g>
  </g>
</svg>
